<svg xmlns="http://www.w3.org/2000/svg" xmlns:xlink="http://www.w3.org/1999/xlink" contentStyleType="text/css" height="827px" preserveAspectRatio="none" style="width:1038px;height:827px;background:#FFFFFF;" version="1.1" viewBox="0 0 1038 827" width="1038px" zoomAndPan="magnify"><defs/><g><text fill="#000000" font-family="sans-serif" font-size="14" font-weight="bold" lengthAdjust="spacing" textLength="274" x="375" y="24.9659">ArqUX &#8212; Enterprise Agent Architecture</text><!--cluster Agent Runtime--><g id="cluster_Agent Runtime"><path d="M178.5,151.0679 L284.5,151.0679 A3.75,3.75 0 0 1 287,153.5679 L294,176.1358 L550.5,176.1358 A2.5,2.5 0 0 1 553,178.6358 L553,386.5679 A2.5,2.5 0 0 1 550.5,389.0679 L178.5,389.0679 A2.5,2.5 0 0 1 176,386.5679 L176,153.5679 A2.5,2.5 0 0 1 178.5,151.0679 " fill="none" style="stroke:#000000;stroke-width:1.5;"/><line style="stroke:#000000;stroke-width:1.5;" x1="176" x2="294" y1="176.1358" y2="176.1358"/><text fill="#000000" font-family="sans-serif" font-size="14" font-weight="bold" lengthAdjust="spacing" textLength="105" x="180" y="168.0339">Agent Runtime</text></g><!--cluster Governance--><g id="cluster_Governance"><path d="M647.5,454.5679 L730.5,454.5679 A3.75,3.75 0 0 1 733,457.0679 L740,479.6358 L970.5,479.6358 A2.5,2.5 0 0 1 973,482.1358 L973,694.5679 A2.5,2.5 0 0 1 970.5,697.0679 L647.5,697.0679 A2.5,2.5 0 0 1 645,694.5679 L645,457.0679 A2.5,2.5 0 0 1 647.5,454.5679 " fill="none" style="stroke:#000000;stroke-width:1.5;"/><line style="stroke:#000000;stroke-width:1.5;" x1="645" x2="740" y1="479.6358" y2="479.6358"/><text fill="#000000" font-family="sans-serif" font-size="14" font-weight="bold" lengthAdjust="spacing" textLength="82" x="649" y="471.5339">Governance</text></g><!--cluster Agent Identities--><g id="cluster_Agent Identities"><path d="M8.5,445.0679 L121.5,445.0679 A3.75,3.75 0 0 1 124,447.5679 L131,470.1358 L528.5,470.1358 A2.5,2.5 0 0 1 531,472.6358 L531,564.5679 A2.5,2.5 0 0 1 528.5,567.0679 L8.5,567.0679 A2.5,2.5 0 0 1 6,564.5679 L6,447.5679 A2.5,2.5 0 0 1 8.5,445.0679 " fill="none" style="stroke:#000000;stroke-width:1.5;"/><line style="stroke:#000000;stroke-width:1.5;" x1="6" x2="131" y1="470.1358" y2="470.1358"/><text fill="#000000" font-family="sans-serif" font-size="14" font-weight="bold" lengthAdjust="spacing" textLength="112" x="10" y="462.0339">Agent Identities</text></g><!--entity ID--><g id="elem_ID"><rect fill="#F1F1F1" height="49.0679" rx="2.5" ry="2.5" style="stroke:#181818;stroke-width:0.5;" width="136" x="381" y="189.0679"/><rect fill="#F1F1F1" height="10" style="stroke:#181818;stroke-width:0.5;" width="15" x="497" y="194.0679"/><rect fill="#F1F1F1" height="2" style="stroke:#181818;stroke-width:0.5;" width="4" x="495" y="196.0679"/><rect fill="#F1F1F1" height="2" style="stroke:#181818;stroke-width:0.5;" width="4" x="495" y="200.0679"/><text fill="#000000" font-family="sans-serif" font-size="14" lengthAdjust="spacing" textLength="96" x="396" y="224.0339">Active Identity</text></g><!--entity HO--><g id="elem_HO"><rect fill="#F1F1F1" height="49.0679" rx="2.5" ry="2.5" style="stroke:#181818;stroke-width:0.5;" width="159" x="191.5" y="324.0679"/><rect fill="#F1F1F1" height="10" style="stroke:#181818;stroke-width:0.5;" width="15" x="330.5" y="329.0679"/><rect fill="#F1F1F1" height="2" style="stroke:#181818;stroke-width:0.5;" width="4" x="328.5" y="331.0679"/><rect fill="#F1F1F1" height="2" style="stroke:#181818;stroke-width:0.5;" width="4" x="328.5" y="335.0679"/><text fill="#000000" font-family="sans-serif" font-size="14" lengthAdjust="spacing" textLength="119" x="206.5" y="359.0339">Handoff Manager</text></g><!--entity LN--><g id="elem_LN"><rect fill="#F1F1F1" height="49.0679" rx="2.5" ry="2.5" style="stroke:#181818;stroke-width:0.5;" width="151" x="385.5" y="324.0679"/><rect fill="#F1F1F1" height="10" style="stroke:#181818;stroke-width:0.5;" width="15" x="516.5" y="329.0679"/><rect fill="#F1F1F1" height="2" style="stroke:#181818;stroke-width:0.5;" width="4" x="514.5" y="331.0679"/><rect fill="#F1F1F1" height="2" style="stroke:#181818;stroke-width:0.5;" width="4" x="514.5" y="335.0679"/><text fill="#000000" font-family="sans-serif" font-size="14" lengthAdjust="spacing" textLength="111" x="400.5" y="359.0339">Learning Engine</text></g><!--entity MCP--><g id="elem_MCP"><rect fill="#F1F1F1" height="49.0679" rx="2.5" ry="2.5" style="stroke:#181818;stroke-width:0.5;" width="135" x="661.5" y="492.5679"/><rect fill="#F1F1F1" height="10" style="stroke:#181818;stroke-width:0.5;" width="15" x="776.5" y="497.5679"/><rect fill="#F1F1F1" height="2" style="stroke:#181818;stroke-width:0.5;" width="4" x="774.5" y="499.5679"/><rect fill="#F1F1F1" height="2" style="stroke:#181818;stroke-width:0.5;" width="4" x="774.5" y="503.5679"/><text fill="#000000" font-family="sans-serif" font-size="14" lengthAdjust="spacing" textLength="95" x="676.5" y="527.5339">MCP Handlers</text></g><!--entity BR--><g id="elem_BR"><rect fill="#F1F1F1" height="49.0679" rx="2.5" ry="2.5" style="stroke:#181818;stroke-width:0.5;" width="121" x="661.5" y="632.0679"/><rect fill="#F1F1F1" height="10" style="stroke:#181818;stroke-width:0.5;" width="15" x="762.5" y="637.0679"/><rect fill="#F1F1F1" height="2" style="stroke:#181818;stroke-width:0.5;" width="4" x="760.5" y="639.0679"/><rect fill="#F1F1F1" height="2" style="stroke:#181818;stroke-width:0.5;" width="4" x="760.5" y="643.0679"/><text fill="#000000" font-family="sans-serif" font-size="14" lengthAdjust="spacing" textLength="81" x="676.5" y="667.0339">brain.cortex</text></g><!--entity MB--><g id="elem_MB"><rect fill="#F1F1F1" height="49.0679" rx="2.5" ry="2.5" style="stroke:#181818;stroke-width:0.5;" width="115" x="817.5" y="632.0679"/><rect fill="#F1F1F1" height="10" style="stroke:#181818;stroke-width:0.5;" width="15" x="912.5" y="637.0679"/><rect fill="#F1F1F1" height="2" style="stroke:#181818;stroke-width:0.5;" width="4" x="910.5" y="639.0679"/><rect fill="#F1F1F1" height="2" style="stroke:#181818;stroke-width:0.5;" width="4" x="910.5" y="643.0679"/><text fill="#000000" font-family="sans-serif" font-size="14" lengthAdjust="spacing" textLength="75" x="832.5" y="667.0339">meta-brain</text></g><!--entity SK--><g id="elem_SK"><rect fill="#F1F1F1" height="49.0679" rx="2.5" ry="2.5" style="stroke:#181818;stroke-width:0.5;" width="125" x="831.5" y="492.5679"/><rect fill="#F1F1F1" height="10" style="stroke:#181818;stroke-width:0.5;" width="15" x="936.5" y="497.5679"/><rect fill="#F1F1F1" height="2" style="stroke:#181818;stroke-width:0.5;" width="4" x="934.5" y="499.5679"/><rect fill="#F1F1F1" height="2" style="stroke:#181818;stroke-width:0.5;" width="4" x="934.5" y="503.5679"/><text fill="#000000" font-family="sans-serif" font-size="14" lengthAdjust="spacing" textLength="85" x="846.5" y="527.5339">Skills Library</text></g><!--entity ALF--><g id="elem_ALF"><rect fill="#F1F1F1" height="68.1358" rx="2.5" ry="2.5" style="stroke:#181818;stroke-width:0.5;" width="101" x="22.5" y="483.0679"/><rect fill="#F1F1F1" height="10" style="stroke:#181818;stroke-width:0.5;" width="15" x="103.5" y="488.0679"/><rect fill="#F1F1F1" height="2" style="stroke:#181818;stroke-width:0.5;" width="4" x="101.5" y="490.0679"/><rect fill="#F1F1F1" height="2" style="stroke:#181818;stroke-width:0.5;" width="4" x="101.5" y="494.0679"/><text fill="#000000" font-family="sans-serif" font-size="14" lengthAdjust="spacing" textLength="41" x="37.5" y="518.0339">Alfred</text><text fill="#000000" font-family="sans-serif" font-size="14" lengthAdjust="spacing" textLength="61" x="37.5" y="537.1018">governor</text></g><!--entity JAR--><g id="elem_JAR"><rect fill="#F1F1F1" height="68.1358" rx="2.5" ry="2.5" style="stroke:#181818;stroke-width:0.5;" width="98" x="159" y="483.0679"/><rect fill="#F1F1F1" height="10" style="stroke:#181818;stroke-width:0.5;" width="15" x="237" y="488.0679"/><rect fill="#F1F1F1" height="2" style="stroke:#181818;stroke-width:0.5;" width="4" x="235" y="490.0679"/><rect fill="#F1F1F1" height="2" style="stroke:#181818;stroke-width:0.5;" width="4" x="235" y="494.0679"/><text fill="#000000" font-family="sans-serif" font-size="14" lengthAdjust="spacing" textLength="36" x="174" y="518.0339">Jarvis</text><text fill="#000000" font-family="sans-serif" font-size="14" lengthAdjust="spacing" textLength="58" x="174" y="537.1018">executor</text></g><!--entity SES--><g id="elem_SES"><rect fill="#F1F1F1" height="68.1358" rx="2.5" ry="2.5" style="stroke:#181818;stroke-width:0.5;" width="85" x="292.5" y="483.0679"/><rect fill="#F1F1F1" height="10" style="stroke:#181818;stroke-width:0.5;" width="15" x="357.5" y="488.0679"/><rect fill="#F1F1F1" height="2" style="stroke:#181818;stroke-width:0.5;" width="4" x="355.5" y="490.0679"/><rect fill="#F1F1F1" height="2" style="stroke:#181818;stroke-width:0.5;" width="4" x="355.5" y="494.0679"/><text fill="#000000" font-family="sans-serif" font-size="14" lengthAdjust="spacing" textLength="45" x="307.5" y="518.0339">Seshat</text><text fill="#000000" font-family="sans-serif" font-size="14" lengthAdjust="spacing" textLength="41" x="307.5" y="537.1018">scribe</text></g><!--entity HEI--><g id="elem_HEI"><rect fill="#F1F1F1" height="68.1358" rx="2.5" ry="2.5" style="stroke:#181818;stroke-width:0.5;" width="102" x="413" y="483.0679"/><rect fill="#F1F1F1" height="10" style="stroke:#181818;stroke-width:0.5;" width="15" x="495" y="488.0679"/><rect fill="#F1F1F1" height="2" style="stroke:#181818;stroke-width:0.5;" width="4" x="493" y="490.0679"/><rect fill="#F1F1F1" height="2" style="stroke:#181818;stroke-width:0.5;" width="4" x="493" y="494.0679"/><text fill="#000000" font-family="sans-serif" font-size="14" lengthAdjust="spacing" textLength="60" x="428" y="518.0339">Heimdall</text><text fill="#000000" font-family="sans-serif" font-size="14" lengthAdjust="spacing" textLength="62" x="428" y="537.1018">guardian</text></g><!--entity ARQ--><g id="elem_ARQ"><path d="M828,772.0679 C828,762.0679 862,762.0679 862,762.0679 C862,762.0679 896,762.0679 896,772.0679 L896,800.1358 C896,810.1358 862,810.1358 862,810.1358 C862,810.1358 828,810.1358 828,800.1358 L828,772.0679 " fill="#F1F1F1" style="stroke:#181818;stroke-width:0.5;"/><path d="M828,772.0679 C828,782.0679 862,782.0679 862,782.0679 C862,782.0679 896,782.0679 896,772.0679 " fill="none" style="stroke:#181818;stroke-width:0.5;"/><text fill="#000000" font-family="sans-serif" font-size="14" lengthAdjust="spacing" textLength="48" x="838" y="801.0339">.arqux/</text></g><!--entity Architect--><g id="elem_Architect"><ellipse cx="449" cy="54.0679" fill="#F1F1F1" rx="8" ry="8" style="stroke:#181818;stroke-width:0.5;"/><text fill="#000000" font-family="sans-serif" font-size="14" lengthAdjust="spacing" textLength="60" x="419" y="86.0339">Architect</text></g><g id="elem_GMN31"><path d="M572,317.0679 L572,380.186 L748,380.186 L748,327.0679 L738,317.0679 L572,317.0679 " fill="#FEFFDD" style="stroke:#181818;stroke-width:0.5;"/><path d="M738,317.0679 L738,327.0679 L748,327.0679 L738,317.0679 " fill="#FEFFDD" style="stroke:#181818;stroke-width:1.0;"/><text fill="#000000" font-family="sans-serif" font-size="13" lengthAdjust="spacing" textLength="124" x="578" y="335.9649">Detects "Hello Jarvis"</text><text fill="#000000" font-family="sans-serif" font-size="13" lengthAdjust="spacing" textLength="123" x="578" y="353.6709">or "switch to Seshat"</text><text fill="#000000" font-family="sans-serif" font-size="13" lengthAdjust="spacing" textLength="155" x="578" y="371.377">Applies AXM/LIM contract</text></g><!--link Architect to ID--><g id="link_Architect_ID"><path d="M449,63.0979 C449,86.0979 449,146.9279 449,182.9279 " fill="none" id="Architect-to-ID" style="stroke:#181818;stroke-width:1.0;"/><polygon fill="#181818" points="449,188.9279,453,179.9279,449,183.9279,445,179.9279,449,188.9279" style="stroke:#181818;stroke-width:1.0;"/><text fill="#000000" font-family="sans-serif" font-size="13" lengthAdjust="spacing" textLength="158" x="450" y="130.9649">greeting / handoff request</text></g><!--link ID to HO--><g id="link_ID_HO"><path d="M403.22,238.1379 C387.74,246.8279 370.67,257.2079 356,268.0679 C333.26,284.8979 314.1831,302.8159 297.7431,319.4859 " fill="none" id="ID-to-HO" style="stroke:#181818;stroke-width:1.0;"/><polygon fill="#181818" points="293.53,323.7579,302.6976,320.1586,297.0409,320.1979,297.0016,314.5412,293.53,323.7579" style="stroke:#181818;stroke-width:1.0;"/><text fill="#000000" font-family="sans-serif" font-size="13" lengthAdjust="spacing" textLength="87" x="357" y="282.9649">identity switch</text></g><!--link HO to ALF--><g id="link_HO_ALF"><path d="M191.21,368.2579 C165.66,377.4179 138.88,390.7879 119,410.0679 C98.69,429.7579 88.4424,454.1471 81.8624,477.2671 " fill="none" id="HO-to-ALF" style="stroke:#181818;stroke-width:1.0;"/><polygon fill="#181818" points="80.22,483.0379,86.5308,475.4766,81.5887,478.2289,78.8364,473.2867,80.22,483.0379" style="stroke:#181818;stroke-width:1.0;"/><text fill="#000000" font-family="sans-serif" font-size="13" lengthAdjust="spacing" textLength="75" x="120" y="424.9649">load identity</text></g><!--link HO to JAR--><g id="link_HO_JAR"><path d="M238.47,373.1379 C227.31,383.1479 216.1,395.8079 210,410.0679 C200.23,432.9179 199.6124,455.1677 201.7724,476.7477 " fill="none" id="HO-to-JAR" style="stroke:#181818;stroke-width:1.0;"/><polygon fill="#181818" points="202.37,482.7179,205.4538,473.3643,201.872,477.7428,197.4935,474.161,202.37,482.7179" style="stroke:#181818;stroke-width:1.0;"/><text fill="#000000" font-family="sans-serif" font-size="13" lengthAdjust="spacing" textLength="75" x="211" y="424.9649">load identity</text></g><!--link HO to SES--><g id="link_HO_SES"><path d="M280.03,373.0679 C291.06,401.7579 307.617,444.8375 320.107,477.3275 " fill="none" id="HO-to-SES" style="stroke:#181818;stroke-width:1.0;"/><polygon fill="#181818" points="322.26,482.9279,322.7642,473.092,320.4659,478.2609,315.297,475.9626,322.26,482.9279" style="stroke:#181818;stroke-width:1.0;"/><text fill="#000000" font-family="sans-serif" font-size="13" lengthAdjust="spacing" textLength="75" x="302" y="424.9649">load identity</text></g><!--link HO to HEI--><g id="link_HO_HEI"><path d="M321.21,373.2079 C346.98,385.8779 375.18,400.7679 386,410.0679 C410.08,430.7779 427.8251,455.1568 441.9251,477.7668 " fill="none" id="HO-to-HEI" style="stroke:#181818;stroke-width:1.0;"/><polygon fill="#181818" points="445.1,482.8579,443.7317,473.1046,442.4542,478.6153,436.9435,477.3378,445.1,482.8579" style="stroke:#181818;stroke-width:1.0;"/><text fill="#000000" font-family="sans-serif" font-size="13" lengthAdjust="spacing" textLength="75" x="404" y="424.9649">load identity</text></g><!--link ID to MCP--><g id="link_ID_MCP"><path d="M517.07,218.8479 C588.39,226.9179 699.15,250.1779 766,317.0679 C802.43,353.5179 812.61,380.2879 796,429.0679 C787.71,453.4279 773.658,471.9337 758.328,488.1037 " fill="none" id="ID-to-MCP" style="stroke:#181818;stroke-width:1.0;"/><polygon fill="#181818" points="754.2,492.4579,763.2949,488.6786,757.64,488.8294,757.4892,483.1745,754.2,492.4579" style="stroke:#181818;stroke-width:1.0;"/><text fill="#000000" font-family="sans-serif" font-size="13" lengthAdjust="spacing" textLength="136" x="804" y="353.9649">governance mutations</text></g><!--link MCP to BR--><g id="link_MCP_BR"><path d="M727.8,541.7079 C726.51,566.8879 724.8063,600.5457 723.5163,625.7857 " fill="none" id="MCP-to-BR" style="stroke:#181818;stroke-width:1.0;"/><polygon fill="#181818" points="723.21,631.7779,727.6642,622.9938,723.4652,626.7844,719.6746,622.5855,723.21,631.7779" style="stroke:#181818;stroke-width:1.0;"/><text fill="#000000" font-family="sans-serif" font-size="13" lengthAdjust="spacing" textLength="98" x="726" y="597.9649">persist decisions</text></g><!--link MCP to MB--><g id="link_MCP_MB"><path d="M762.29,541.8179 C777.72,552.4579 796.49,564.8779 814,575.0679 C820.87,579.0679 824.13,577.7079 830,583.0679 C844.99,596.7479 854.137,611.1862 861.897,626.6362 " fill="none" id="MCP-to-MB" style="stroke:#181818;stroke-width:1.0;"/><polygon fill="#181818" points="864.59,631.9979,864.125,622.16,862.3458,627.5298,856.976,625.7507,864.59,631.9979" style="stroke:#181818;stroke-width:1.0;"/><text fill="#000000" font-family="sans-serif" font-size="13" lengthAdjust="spacing" textLength="74" x="846" y="597.9649">sync metrics</text></g><!--link ID to LN--><g id="link_ID_LN"><path d="M451.15,238.3479 C453.33,262.5579 456.1628,293.882 458.3328,318.022 " fill="none" id="ID-to-LN" style="stroke:#181818;stroke-width:1.0;"/><polygon fill="#181818" points="458.87,323.9979,462.0482,314.6759,458.4223,319.018,454.0803,315.3922,458.87,323.9979" style="stroke:#181818;stroke-width:1.0;"/><text fill="#000000" font-family="sans-serif" font-size="13" lengthAdjust="spacing" textLength="86" x="456" y="282.9649">record lessons</text></g><!--link LN to SK--><g id="link_LN_SK"><path d="M500.99,373.2779 C517.26,381.9879 536.55,391.1479 555,397.0679 C665.9,432.6579 709.95,384.7179 814,437.0679 C839.63,449.9679 858.4615,469.413 873.0315,487.623 " fill="none" id="LN-to-SK" style="stroke:#181818;stroke-width:1.0;"/><polygon fill="#181818" points="876.78,492.3079,874.2806,482.7815,873.6563,488.4038,868.034,487.7795,876.78,492.3079" style="stroke:#181818;stroke-width:1.0;"/><text fill="#000000" font-family="sans-serif" font-size="13" lengthAdjust="spacing" textLength="112" x="796" y="424.9649">elevate knowledge</text></g><!--link BR to ARQ--><g id="link_BR_ARQ"><path d="M748,681.2479 C773.31,704.2979 807.0732,735.0488 832.1732,757.8988 " fill="none" id="BR-to-ARQ" style="stroke:#181818;stroke-width:1.0;"/><polygon fill="#181818" points="836.61,761.9379,832.6475,752.9214,832.9126,758.572,827.262,758.8371,836.61,761.9379" style="stroke:#181818;stroke-width:1.0;"/><text fill="#000000" font-family="sans-serif" font-size="13" lengthAdjust="spacing" textLength="66" x="801" y="727.9649">file storage</text></g><!--link SK to ARQ--><g id="link_SK_ARQ"><path d="M911.59,541.7679 C936.12,577.9379 974.95,648.6579 950,705.0679 C938.97,729.9879 920.8141,747.0169 901.0741,761.0169 " fill="none" id="SK-to-ARQ" style="stroke:#181818;stroke-width:1.0;"/><polygon fill="#181818" points="896.18,764.4879,905.8351,762.5442,900.2584,761.5954,901.2072,756.0187,896.18,764.4879" style="stroke:#181818;stroke-width:1.0;"/><text fill="#000000" font-family="sans-serif" font-size="13" lengthAdjust="spacing" textLength="71" x="959" y="661.9649">skill storage</text></g><!--link HO to GMN31--><g id="link_HO_GMN31"><path d="M300.36,323.9279 C322.27,307.2279 353.78,286.6079 385.5,277.5679 C449.62,259.2979 471.06,260.4879 535.5,277.5679 C564.84,285.3479 594.49,301.8379 617.49,316.9679 " fill="none" id="HO-GMN31" style="stroke:#181818;stroke-width:1.0;stroke-dasharray:7.0,7.0;"/></g><!--SRC=[TPF1ZXen38RlUGfhxYptELGQ2ksm3D1bL6cbxXv2nWmH8O74mxAgAlKX-eHzaZeJeDrAU_NdsFxzEwJ981J- -FKHVl_y1HDBw0zU1mwsQ8cHscf2HPr78GvIxMIBa2MuwYpfFMRmNG1yAnJf4yAqOQJfzHbaWEauabBQncqsC9UMN_kUbCj8AfJUQjjourPRx4cr43_-QVNPdT1RQTMrp_pZ5uWL3VhGF-10ZA-zrFPEEKzuxkEZLGplaUIWPobv58FrJXl3hJG3dqQjPs_Q9eKNCHh3LQJPU6oURDjFvPAMeleKsRtq9nsUB9vHTNHXzqK_HOrXA-d91kNrEkci9tM_7DJxHXh3DJlf6otJdELa6kTf9CcrP3koE-cFtNcOzGrN3qBSh871u0DlEeUizOWKrpc4xMNd7eyT1ih4TDpdbSiSzCKY22-Qr5QKonwnZ1oCayqjuKfOn3k4HRn3MC3_v382-vL3UxCLzXr9qiu64QsD6IDkTs1xTI1eKEdmXiv7EOHNgu2jzLg5QzrgaRDSFe0638OGdrIBDEKi1pHuaeImi-x5ODEY6AsIxDL33XlD_o2mQMo-g6T_GOYNSYF2EYxXTRibS9jqn6EC9WJ8IZJ6GRg2Z87paAKD0pb85n3ZnU5W-AAWU9mFg-aSbBFafIA1je7Ou0y0]--></g></svg>