<svg xmlns="http://www.w3.org/2000/svg" xmlns:xlink="http://www.w3.org/1999/xlink" contentStyleType="text/css" height="864px" preserveAspectRatio="none" style="width:542px;height:864px;background:#FFFFFF;" version="1.1" viewBox="0 0 542 864" width="542px" zoomAndPan="magnify"><defs/><g><text fill="#000000" font-family="sans-serif" font-size="14" font-weight="bold" lengthAdjust="spacing" textLength="247" x="140.915" y="24.9659">Blueprint Lifecycle &#8212; State Machine</text><g id="D"><rect fill="#F1F1F1" height="50" rx="12.5" ry="12.5" style="stroke:#181818;stroke-width:0.5;" width="53" x="391.33" y="145.0679"/><line style="stroke:#181818;stroke-width:0.5;" x1="391.33" x2="444.33" y1="174.1358" y2="174.1358"/><text fill="#000000" font-family="sans-serif" font-size="14" lengthAdjust="spacing" textLength="33" x="401.33" y="165.0339">draft</text></g><g id="M"><rect fill="#F1F1F1" height="50" rx="12.5" ry="12.5" style="stroke:#181818;stroke-width:0.5;" width="83" x="301.33" y="292.0679"/><line style="stroke:#181818;stroke-width:0.5;" x1="301.33" x2="384.33" y1="321.1358" y2="321.1358"/><text fill="#000000" font-family="sans-serif" font-size="14" lengthAdjust="spacing" textLength="63" x="311.33" y="312.0339">maturing</text></g><g id="R"><rect fill="#F1F1F1" height="50" rx="12.5" ry="12.5" style="stroke:#181818;stroke-width:0.5;" width="58" x="200.83" y="421.0679"/><line style="stroke:#181818;stroke-width:0.5;" x1="200.83" x2="258.83" y1="450.1358" y2="450.1358"/><text fill="#000000" font-family="sans-serif" font-size="14" lengthAdjust="spacing" textLength="38" x="210.83" y="441.0339">ready</text></g><g id="IP"><rect fill="#F1F1F1" height="50" rx="12.5" ry="12.5" style="stroke:#181818;stroke-width:0.5;" width="99" x="152.33" y="550.0679"/><line style="stroke:#181818;stroke-width:0.5;" x1="152.33" x2="251.33" y1="579.1358" y2="579.1358"/><text fill="#000000" font-family="sans-serif" font-size="14" lengthAdjust="spacing" textLength="79" x="162.33" y="570.0339">in_progress</text></g><g id="RV"><rect fill="#F1F1F1" height="50" rx="12.5" ry="12.5" style="stroke:#181818;stroke-width:0.5;" width="64" x="154.83" y="679.0679"/><line style="stroke:#181818;stroke-width:0.5;" x1="154.83" x2="218.83" y1="708.1358" y2="708.1358"/><text fill="#000000" font-family="sans-serif" font-size="14" lengthAdjust="spacing" textLength="44" x="164.83" y="699.0339">review</text></g><g id="DN"><rect fill="#F1F1F1" height="50" rx="12.5" ry="12.5" style="stroke:#181818;stroke-width:0.5;" width="54" x="141.83" y="808.0679"/><line style="stroke:#181818;stroke-width:0.5;" x1="141.83" x2="195.83" y1="837.1358" y2="837.1358"/><text fill="#000000" font-family="sans-serif" font-size="14" lengthAdjust="spacing" textLength="34" x="151.83" y="828.0339">done</text></g><g id="B"><rect fill="#F1F1F1" height="50" rx="12.5" ry="12.5" style="stroke:#181818;stroke-width:0.5;" width="72" x="364.83" y="679.0679"/><line style="stroke:#181818;stroke-width:0.5;" x1="364.83" x2="436.83" y1="708.1358" y2="708.1358"/><text fill="#000000" font-family="sans-serif" font-size="14" lengthAdjust="spacing" textLength="52" x="374.83" y="699.0339">blocked</text></g><g id="CN"><rect fill="#F1F1F1" height="50" rx="12.5" ry="12.5" style="stroke:#181818;stroke-width:0.5;" width="84" x="317.83" y="808.0679"/><line style="stroke:#181818;stroke-width:0.5;" x1="317.83" x2="401.83" y1="837.1358" y2="837.1358"/><text fill="#000000" font-family="sans-serif" font-size="14" lengthAdjust="spacing" textLength="64" x="327.83" y="828.0339">cancelled</text></g><ellipse cx="417.83" cy="56.0679" fill="#222222" rx="10" ry="10" style="stroke:#222222;stroke-width:1.0;"/><!--link *start* to D--><g id="link_*start*_D"><path d="M417.83,66.2379 C417.83,83.2679 417.83,114.2979 417.83,138.9579 " fill="none" id="*start*-to-D" style="stroke:#181818;stroke-width:1.0;"/><polygon fill="#181818" points="417.83,144.9579,421.83,135.9579,417.83,139.9579,413.83,135.9579,417.83,144.9579" style="stroke:#181818;stroke-width:1.0;"/><text fill="#000000" font-family="sans-serif" font-size="13" lengthAdjust="spacing" textLength="95" x="418.83" y="110.9649">blueprint.create</text></g><!--link D to M--><g id="link_D_M"><path d="M391.25,182.9879 C374.68,191.9779 354.69,206.0279 344.83,225.0679 C334.14,245.6979 334.2254,266.6977 336.9554,285.8977 " fill="none" id="D-to-M" style="stroke:#181818;stroke-width:1.0;"/><polygon fill="#181818" points="337.8,291.8379,340.4932,282.3645,337.0961,286.8877,332.5729,283.4906,337.8,291.8379" style="stroke:#181818;stroke-width:1.0;"/><text fill="#000000" font-family="sans-serif" font-size="13" lengthAdjust="spacing" textLength="102" x="354.33" y="239.9649">blueprint.mature</text><text fill="#000000" font-family="sans-serif" font-size="13" lengthAdjust="spacing" textLength="119" x="345.83" y="257.6709">(inquiry + synthesis)</text></g><!--link M to R--><g id="link_M_R"><path d="M321.31,342.2579 C301.2,364.8479 275.3382,393.9152 255.2582,416.4852 " fill="none" id="M-to-R" style="stroke:#181818;stroke-width:1.0;"/><polygon fill="#181818" points="251.27,420.9679,260.2407,416.9026,254.5935,417.2323,254.2638,411.5851,251.27,420.9679" style="stroke:#181818;stroke-width:1.0;"/><text fill="#000000" font-family="sans-serif" font-size="13" lengthAdjust="spacing" textLength="92" x="294.83" y="386.9649">blueprint.ready</text></g><!--link R to IP--><g id="link_R_IP"><path d="M224.5,471.2579 C219.51,493.8479 213.4128,521.5388 208.4328,544.1088 " fill="none" id="R-to-IP" style="stroke:#181818;stroke-width:1.0;"/><polygon fill="#181818" points="207.14,549.9679,212.9852,542.0412,208.2173,545.0854,205.1731,540.3175,207.14,549.9679" style="stroke:#181818;stroke-width:1.0;"/><text fill="#000000" font-family="sans-serif" font-size="13" lengthAdjust="spacing" textLength="89" x="218.83" y="515.9649">blueprint.claim</text></g><!--link IP to RV--><g id="link_IP_RV"><path d="M152,577.6879 C113.9,581.8579 63.66,594.3679 37.83,630.0679 C6,674.0579 95.88,692.0753 148.63,698.9253 " fill="none" id="IP-to-RV" style="stroke:#181818;stroke-width:1.0;"/><polygon fill="#181818" points="154.58,699.6979,146.17,694.5722,149.6216,699.054,145.1398,702.5056,154.58,699.6979" style="stroke:#181818;stroke-width:1.0;"/><text fill="#000000" font-family="sans-serif" font-size="13" lengthAdjust="spacing" textLength="114" x="38.83" y="644.9649">blueprint.complete</text></g><!--link RV to IP--><g id="link_RV_IP"><path d="M188.82,679.0279 C190.08,664.7779 191.84,646.3679 193.83,630.0679 C195.02,620.2879 195.6715,615.4703 197.0815,606.1603 " fill="none" id="RV-to-IP" style="stroke:#181818;stroke-width:1.0;"/><polygon fill="#181818" points="197.98,600.2279,192.6774,608.5275,197.2313,605.1715,200.5872,609.7254,197.98,600.2279" style="stroke:#181818;stroke-width:1.0;"/><text fill="#000000" font-family="sans-serif" font-size="13" lengthAdjust="spacing" textLength="153" x="194.83" y="644.9649">re-delegate (max 3 cycles)</text></g><!--link IP to B--><g id="link_IP_B"><path d="M251.34,585.2879 C282.91,593.0879 323.28,606.8379 352.83,630.0679 C369.16,642.9079 379.0042,657.5882 387.1842,673.4082 " fill="none" id="IP-to-B" style="stroke:#181818;stroke-width:1.0;"/><polygon fill="#181818" points="389.94,678.7379,389.3594,668.9062,387.6435,674.2965,382.2532,672.5806,389.94,678.7379" style="stroke:#181818;stroke-width:1.0;"/><text fill="#000000" font-family="sans-serif" font-size="13" lengthAdjust="spacing" textLength="75" x="372.83" y="644.9649">blueprint.fail</text></g><!--link B to D--><g id="link_B_D"><path d="M432.15,678.9979 C458.47,655.7979 491.83,618.1079 491.83,576.0679 C491.83,316.0679 491.83,316.0679 491.83,316.0679 C491.83,274.4579 489.85,261.5479 469.83,225.0679 C463.38,213.3179 458.0049,206.4573 448.7449,197.4673 " fill="none" id="B-to-D" style="stroke:#181818;stroke-width:1.0;"/><polygon fill="#181818" points="444.44,193.2879,448.1111,202.427,448.0274,196.7708,453.6837,196.6871,444.44,193.2879" style="stroke:#181818;stroke-width:1.0;"/><text fill="#000000" font-family="sans-serif" font-size="13" lengthAdjust="spacing" textLength="42" x="492.83" y="451.4649">re-plan</text></g><!--link B to CN--><g id="link_B_CN"><path d="M393.02,729.2579 C385.72,751.8479 376.7319,779.6876 369.4519,802.2576 " fill="none" id="B-to-CN" style="stroke:#181818;stroke-width:1.0;"/><polygon fill="#181818" points="367.61,807.9679,374.1797,800.6304,369.1449,803.2093,366.5659,798.1746,367.61,807.9679" style="stroke:#181818;stroke-width:1.0;"/><text fill="#000000" font-family="sans-serif" font-size="13" lengthAdjust="spacing" textLength="95" x="383.83" y="773.9649">blueprint.cancel</text></g><!--link RV to DN--><g id="link_RV_DN"><path d="M175.23,729.2379 C171.44,738.3579 167.72,748.9879 165.83,759.0679 C162.81,775.1479 162.9662,787.5915 164.4862,801.9015 " fill="none" id="RV-to-DN" style="stroke:#181818;stroke-width:1.0;"/><polygon fill="#181818" points="165.12,807.8679,168.147,798.4958,164.5919,802.8959,160.1917,799.3408,165.12,807.8679" style="stroke:#181818;stroke-width:1.0;"/><text fill="#000000" font-family="sans-serif" font-size="13" lengthAdjust="spacing" textLength="108" x="166.83" y="773.9649">blueprint.approve</text></g><!--link RV to CN--><g id="link_RV_CN"><path d="M218.88,721.4679 C237.31,731.4379 260.56,744.9379 279.83,759.0679 C299.99,773.8579 316.5045,788.7988 331.8445,803.7588 " fill="none" id="RV-to-CN" style="stroke:#181818;stroke-width:1.0;"/><polygon fill="#181818" points="336.14,807.9479,332.4895,798.8006,332.5604,804.457,326.904,804.5279,336.14,807.9479" style="stroke:#181818;stroke-width:1.0;"/><text fill="#000000" font-family="sans-serif" font-size="13" lengthAdjust="spacing" textLength="40" x="304.83" y="773.9649">3rd fail</text></g><!--SRC=[LP6_JiCm4CPtFyMfKm6LfHi3GvgbKXDLGUe225sTIslXEC5s2jbu29wG9y6znaKU_Vlkp_UTlVAQ8DC3zLOP3nlLa1nbOB_VF_3aqHCKA8_Aa12EdxFQOkDdW0xoY5hqG-W_C2qYjOJroAYAI9cttdO7IywniDx-5vyKVLwgTzTLdQ7BfZAYlUxaEzLCimWb6abQJtXL2l5y-mgBnIFay03x6EzU1akUHCvIaKWSWLxCN9cFGTaHxi2DnX_9ANSZ2kweaWwE9ofMrjjqZqRLYW2vQvTgNTjh2YucEKlK1fKMsTMwfKMlqKnaLQQJEBK8yxay5R4FXpvHLDbWc5QJfiFvPlCMls09_DaXu5J66vQsXhEFFm00]--></g></svg>