<svg xmlns="http://www.w3.org/2000/svg" xmlns:xlink="http://www.w3.org/1999/xlink" contentStyleType="text/css" height="538px" preserveAspectRatio="none" style="width:403px;height:538px;background:#FFFFFF;" version="1.1" viewBox="0 0 403 538" width="403px" zoomAndPan="magnify"><defs/><g><text fill="#000000" font-family="sans-serif" font-size="14" font-weight="bold" lengthAdjust="spacing" textLength="258" x="65.75" y="24.9659">Learning Pipeline &#8212; Lesson Elevation</text><!--entity BEH--><g id="elem_BEH"><rect fill="#F1F1F1" height="58.1358" rx="2.5" ry="2.5" style="stroke:#181818;stroke-width:0.5;" width="119" x="16.5" y="186.5679"/><text fill="#000000" font-family="sans-serif" font-size="14" lengthAdjust="spacing" textLength="85" x="26.5" y="211.5339">BEHAVIORAL</text><text fill="#000000" font-family="sans-serif" font-size="14" lengthAdjust="spacing" textLength="99" x="26.5" y="230.6018">identity.record</text></g><!--entity CTX--><g id="elem_CTX"><rect fill="#F1F1F1" height="58.1358" rx="2.5" ry="2.5" style="stroke:#181818;stroke-width:0.5;" width="138" x="7" y="328.5679"/><text fill="#000000" font-family="sans-serif" font-size="14" lengthAdjust="spacing" textLength="89" x="17" y="353.5339">CONTEXTUAL</text><text fill="#000000" font-family="sans-serif" font-size="14" lengthAdjust="spacing" textLength="118" x="17" y="372.6018">brain.cortex KNW</text></g><!--entity PRO--><g id="elem_PRO"><rect fill="#F1F1F1" height="58.1358" rx="2.5" ry="2.5" style="stroke:#181818;stroke-width:0.5;" width="110" x="21" y="470.5679"/><text fill="#000000" font-family="sans-serif" font-size="14" lengthAdjust="spacing" textLength="90" x="31" y="495.5339">PROCEDURAL</text><text fill="#000000" font-family="sans-serif" font-size="14" lengthAdjust="spacing" textLength="89" x="31" y="514.6018">reusable skill</text></g><!--entity SRC--><g id="elem_SRC"><rect fill="#F1F1F1" height="58.1358" rx="2.5" ry="2.5" style="stroke:#181818;stroke-width:0.5;" width="131" x="10.5" y="47.0679"/><text fill="#000000" font-family="sans-serif" font-size="14" lengthAdjust="spacing" textLength="111" x="20.5" y="72.0339">Individual agent</text><text fill="#000000" font-family="sans-serif" font-size="14" lengthAdjust="spacing" textLength="43" x="20.5" y="91.1018">lesson</text></g><!--entity PROJ--><g id="elem_PROJ"><rect fill="#F1F1F1" height="58.1358" rx="2.5" ry="2.5" style="stroke:#181818;stroke-width:0.5;" width="102" x="177" y="47.0679"/><text fill="#000000" font-family="sans-serif" font-size="14" lengthAdjust="spacing" textLength="82" x="187" y="72.0339">Project-level</text><text fill="#000000" font-family="sans-serif" font-size="14" lengthAdjust="spacing" textLength="73" x="187" y="91.1018">knowledge</text></g><!--entity ORG--><g id="elem_ORG"><rect fill="#F1F1F1" height="58.1358" rx="2.5" ry="2.5" style="stroke:#181818;stroke-width:0.5;" width="83" x="314.5" y="47.0679"/><text fill="#000000" font-family="sans-serif" font-size="14" lengthAdjust="spacing" textLength="63" x="324.5" y="72.0339">Org-wide</text><text fill="#000000" font-family="sans-serif" font-size="14" lengthAdjust="spacing" textLength="60" x="324.5" y="91.1018">workflow</text></g><g id="elem_GMN11"><path d="M170.5,184.0679 L170.5,211.5679 L135.78,215.5679 L170.5,219.5679 L170.5,247.186 A0,0 0 0 0 170.5,247.186 L339.5,247.186 A0,0 0 0 0 339.5,247.186 L339.5,194.0679 L329.5,184.0679 L170.5,184.0679 A0,0 0 0 0 170.5,184.0679 " fill="#FEFFDD" style="stroke:#181818;stroke-width:0.5;"/><path d="M329.5,184.0679 L329.5,194.0679 L339.5,194.0679 L329.5,184.0679 " fill="#FEFFDD" style="stroke:#181818;stroke-width:0.5;"/><text fill="#000000" font-family="sans-serif" font-size="13" lengthAdjust="spacing" textLength="132" x="176.5" y="202.9649">AXM:workflow_fidelity</text><text fill="#000000" font-family="sans-serif" font-size="13" lengthAdjust="spacing" textLength="148" x="176.5" y="220.6709">LNG:template_mismatch</text><text fill="#000000" font-family="sans-serif" font-size="13" lengthAdjust="spacing" textLength="124" x="176.5" y="238.377">Scoped to one agent</text></g><g id="elem_GMN14"><path d="M180.5,326.0679 L180.5,353.5679 L145.03,357.5679 L180.5,361.5679 L180.5,389.186 A0,0 0 0 0 180.5,389.186 L347.5,389.186 A0,0 0 0 0 347.5,389.186 L347.5,336.0679 L337.5,326.0679 L180.5,326.0679 A0,0 0 0 0 180.5,326.0679 " fill="#FEFFDD" style="stroke:#181818;stroke-width:0.5;"/><path d="M337.5,326.0679 L337.5,336.0679 L347.5,336.0679 L337.5,326.0679 " fill="#FEFFDD" style="stroke:#181818;stroke-width:0.5;"/><text fill="#000000" font-family="sans-serif" font-size="13" lengthAdjust="spacing" textLength="117" x="186.5" y="344.9649">All agents in project</text><text fill="#000000" font-family="sans-serif" font-size="13" lengthAdjust="spacing" textLength="140" x="186.5" y="362.6709">benefit from this lesson</text><text fill="#000000" font-family="sans-serif" font-size="13" lengthAdjust="spacing" textLength="146" x="186.5" y="380.377">Survives session restarts</text></g><g id="elem_GMN17"><path d="M166,468.0679 L166,495.5679 L131.34,499.5679 L166,503.5679 L166,531.186 A0,0 0 0 0 166,531.186 L354,531.186 A0,0 0 0 0 354,531.186 L354,478.0679 L344,468.0679 L166,468.0679 A0,0 0 0 0 166,468.0679 " fill="#FEFFDD" style="stroke:#181818;stroke-width:0.5;"/><path d="M344,468.0679 L344,478.0679 L354,478.0679 L344,468.0679 " fill="#FEFFDD" style="stroke:#181818;stroke-width:0.5;"/><text fill="#000000" font-family="sans-serif" font-size="13" lengthAdjust="spacing" textLength="167" x="172" y="486.9649">Any agent in any workspace</text><text fill="#000000" font-family="sans-serif" font-size="13" lengthAdjust="spacing" textLength="100" x="172" y="504.6709">can load this skill</text><text fill="#000000" font-family="sans-serif" font-size="13" lengthAdjust="spacing" textLength="132" x="172" y="522.377">True knowledge reuse</text></g><!--link SRC to BEH--><g id="link_SRC_BEH"><path d="M76,105.2279 C76,128.9479 76,156.7279 76,180.4479 " fill="none" id="SRC-to-BEH" style="stroke:#181818;stroke-width:1.0;"/><polygon fill="#181818" points="76,186.4479,80,177.4479,76,181.4479,72,177.4479,76,186.4479" style="stroke:#181818;stroke-width:1.0;"/><text fill="#000000" font-family="sans-serif" font-size="13" lengthAdjust="spacing" textLength="98" x="77" y="149.9649">correction event</text></g><!--link BEH to CTX--><g id="link_BEH_CTX"><path d="M76,244.8979 C76,269.1879 76,297.9979 76,322.2779 " fill="none" id="BEH-to-CTX" style="stroke:#181818;stroke-width:1.0;"/><polygon fill="#181818" points="76,328.2779,80,319.2779,76,323.2779,72,319.2779,76,328.2779" style="stroke:#181818;stroke-width:1.0;"/><text fill="#000000" font-family="sans-serif" font-size="13" lengthAdjust="spacing" textLength="99" x="77" y="291.9649">elevation engine</text></g><!--link CTX to PRO--><g id="link_CTX_PRO"><path d="M76,386.8979 C76,411.1879 76,439.9979 76,464.2779 " fill="none" id="CTX-to-PRO" style="stroke:#181818;stroke-width:1.0;"/><polygon fill="#181818" points="76,470.2779,80,461.2779,76,465.2779,72,461.2779,76,470.2779" style="stroke:#181818;stroke-width:1.0;"/><text fill="#000000" font-family="sans-serif" font-size="13" lengthAdjust="spacing" textLength="99" x="77" y="433.9649">elevation engine</text></g><!--SRC=[TLBBJW914BplLtIyumTmC44a-42M82W74ZFizYujGyzcfW6z-H5-eLzYpo04ZHwtggQhgtg5n28Cq7Wchc543LfYXC_t3qL3S0mzYriZv3ZBF1PYkDONPvUzwyxZJJxk3EPC9RAGl9qhxtnv1YQ0ygVoRZwSz6QJQPGll24-LwNWAzmDdvA-EvcTwaVZlDkxcgRn7ZV1B1GDAx8sgPN-iSqDbxIbScCic5gNcRDDooVnmxZxOxHtB_hLqbXevxnYjxDOrdWOV7igpdtTscc-EU-SNrNMxP8i7_UpJET2gtKHeq8RD4zyfps13cR98XnfJQOq7be4v5eRpY8SQNNyYyxO2OAdUYdWgbGdG6TstpxiyLpfMbPRLtmmxBS5ruqrWizh2ciZnLBnXy8rM88uS7hJr4o6N4AS_TiX7a0Tx7U30OYXsLUb-08PAnAel5k3B2d0lk1eil5RscA0e4XCu368yHB-jOhNKoj-srj59wCVCLbeJ85A5eR1EbFklTBX5Ptu3SBnO11_33owV040]--></g></svg>